<svg id="flat" height="512" viewBox="0 0 512 512" width="512" xmlns="http://www.w3.org/2000/svg"><path d="m240 424 8 48-16 8-40-64 16-16z" fill="#8796c4"/><path d="m208 400 64-72v-120h56v121.84416a32 32 0 0 1 -10.47447 23.67809l-77.52553 70.47775z" fill="#445496"/><path d="m228.84473 323.57764-25.78907-51.57764h-54.11132l-25.78907 51.57764-14.31054-7.15528 28-56a7.99979 7.99979 0 0 1 7.15527-4.42236h64a7.99979 7.99979 0 0 1 7.15527 4.42236l28 56z" fill="#f5a431"/><path d="m440 216-8.58008 17.17a16.01081 16.01081 0 0 1 -21.98 6.89l-81.43992-40.06v8h-96v-72l-40 40v56l14.34009 14.34a5.65694 5.65694 0 0 1 -4 9.66h-10.34009v24h-24a15.99555 15.99555 0 0 1 -16-16v-98.75a31.99527 31.99527 0 0 1 9.37012-22.62l45.25976-45.26a31.99554 31.99554 0 0 1 22.62012-9.37h93.79a31.9968 31.9968 0 0 1 31.83984 28.82l3.56006 35.57 1.5601 15.61 48 24h18.34009a5.6569 5.6569 0 0 1 4 9.66l-6.34009 6.34z" fill="#ffceb6"/><path d="m328 464v24h80v-16l-32-24z" fill="#8796c4"/><path d="m328 464 48-16v-111.43146a40 40 0 0 0 -11.71573-28.28427l-68.28427-68.28427v-32h-64v33.92315a32 32 0 0 0 10.37681 23.58893l85.62319 78.48792z" fill="#445496"/><path d="m358.43994 152.39-30.43994 7.61v48h-96v-72l-24 24-32-32 30.62988-30.63a31.99554 31.99554 0 0 1 22.62012-9.37h93.79a31.9968 31.9968 0 0 1 31.83984 28.82z" fill="#ed6445"/><rect fill="#de402f" height="32" rx="8" width="16" x="320" y="128"/><rect fill="#f7d179" height="32" rx="16" width="208" x="72" y="312"/><path d="m88 344 24 72h120l32-72z" fill="#f7c04a"/><g fill="#f5a431"><path d="m120 360h16v16h-16z"/><path d="m152 360h16v16h-16z"/><path d="m184 360h16v16h-16z"/><path d="m216 360h16v16h-16z"/><path d="m136 384h16v16h-16z"/><path d="m168 384h16v16h-16z"/><path d="m200 384h16v16h-16z"/></g><rect fill="#2c3e91" height="75.968" rx="8" transform="matrix(.676 -.737 .737 .676 -137.378 324.371)" width="16.001" x="292" y="280.349"/><path d="m312 233.37258a8.00017 8.00017 0 0 1 8.00017 8.00017v29.25449a8.00018 8.00018 0 0 1 -8.00017 8.00018 8.00017 8.00017 0 0 1 -8.00017-8.00017v-29.25449a8.00017 8.00017 0 0 1 8.00017-8.00018z" fill="#2c3e91" transform="matrix(.707 -.707 .707 .707 -89.637 295.598)"/><path d="m288 64v36a12 12 0 1 1 -24 0v-36z" fill="#ffceb6"/><path d="m288 64v32a15.99555 15.99555 0 0 1 -16-16v-16z" fill="#ffbfa1"/><path d="m296 56 7.80065-3.90032a14.8328 14.8328 0 0 0 8.19935-13.26686v-14.83282h-36.58361a19.41638 19.41638 0 0 0 -19.41639 19.41639 19.41651 19.41651 0 0 0 2.04984 8.68328l5.95016 11.90033h24.00348z" fill="#b36f42"/><path d="m264 56 8-8a17.88853 17.88853 0 0 0 24 8v16a16 16 0 0 1 -16 16 16 16 0 0 1 -16-16z" fill="#ffceb6"/></svg>